<?xml version="1.0" encoding="UTF-8" standalone="no"?>
<svg
   id="Layer_1"
   data-name="Layer 1"
   viewBox="0 0 117.9 156.41987"
   version="1.1"
   sodipodi:docname="Unbound_Outline_Black.svg"
   width="117.9"
   height="156.41986"
   xmlns:inkscape="http://www.inkscape.org/namespaces/inkscape"
   xmlns:sodipodi="http://sodipodi.sourceforge.net/DTD/sodipodi-0.dtd"
   xmlns="http://www.w3.org/2000/svg"
   xmlns:svg="http://www.w3.org/2000/svg">
  <defs
     id="defs50" />
  <sodipodi:namedview
     id="namedview48"
     pagecolor="#ffffff"
     bordercolor="#000000"
     borderopacity="0.25"
     inkscape:showpageshadow="2"
     inkscape:pageopacity="0.0"
     inkscape:pagecheckerboard="0"
     inkscape:deskcolor="#d1d1d1"
     showgrid="false" />
  <title
     id="title27">Unbound_Outline_Black</title>
  <g
     id="g45"
     transform="translate(-78.94,-78.929903)">
    <path
       d="M 190.19,97.78 159.75,80.21 a 9.49,9.49 0 0 0 -14.23,8.21 v 66.65 a 13.34,13.34 0 0 0 6.65,11.51 l 12.4,7.16 -26.7,15.4 -26.67,-15.4 12.4,-7.16 a 13.34,13.34 0 0 0 6.65,-11.51 V 88.42 A 9.49,9.49 0 0 0 116,80.21 L 85.58,97.78 a 13.33,13.33 0 0 0 -6.64,11.51 v 86.42 a 13.33,13.33 0 0 0 6.64,11.51 l 45.66,26.36 a 13.36,13.36 0 0 0 13.29,0 l 45.66,-26.36 a 13.34,13.34 0 0 0 6.65,-11.51 V 109.29 A 13.34,13.34 0 0 0 190.19,97.78 Z M 82.69,109.29 A 9.57,9.57 0 0 1 87.46,101 L 117.9,83.46 a 5.74,5.74 0 0 1 8.6,5 v 66.65 a 9.57,9.57 0 0 1 -4.77,8.26 L 85.58,184.2 a 13.08,13.08 0 0 0 -2.89,2.26 z M 188.32,204 142.66,230.36 a 9.56,9.56 0 0 1 -9.54,0 L 87.46,204 a 9.54,9.54 0 0 1 0,-16.52 l 20,-11.54 28.54,16.45 a 3.81,3.81 0 0 0 3.78,0 l 28.55,-16.48 20,11.54 a 9.54,9.54 0 0 1 0,16.52 z m 4.77,-17.51 a 13.37,13.37 0 0 0 -2.9,-2.26 L 154,163.33 a 9.57,9.57 0 0 1 -4.77,-8.26 V 88.42 a 5.74,5.74 0 0 1 8.61,-5 L 188.32,101 a 9.57,9.57 0 0 1 4.77,8.26 z"
       id="path43" />
  </g>
</svg>
