<svg id="Layer_1" data-name="Layer 1" xmlns="http://www.w3.org/2000/svg" viewBox="0 0 830.08 314.3">
  <title>Unbound_Outline_Black</title>
  <g>
    <path d="M289.86,173.78c-6.9,3.55-13.61,5.57-18.44,5.54-5.93,0-9.29-2.69-9.29-11.81V125.13H249.31v44.18c0,15.15,7.88,21.29,18.65,21.26,7,0,15-2.62,22.6-6.49l.6,5h11.53v-64H289.87Z"/>
    <path d="M358.27,123.68c-7.32,0-16.08,2.51-24.78,6.59l-.62-5.14H321.35v64h12.83V140.59c7.95-3.63,15.4-5.66,20.89-5.66,6.28,0,9.82,2.67,9.82,11.81v42.41H377.7V144.94C377.7,129.74,369.65,123.68,358.27,123.68Z"/>
    <path d="M430.53,123.68c-7.06,0-12.62,1.71-21.19,6.45V98.53H396.52v90.62H408l.64-5.37c9.11,5.11,14.8,6.82,21.9,6.82,19.31,0,24.5-12.67,24.52-33.37S449.88,123.68,430.53,123.68ZM427,179.35c-4.9,0-8.93-1.08-17.64-5.86v-32.7c8.6-4.73,12.65-5.86,17.68-5.86,11.78,0,14.9,6.36,14.92,22.2S438.8,179.35,427,179.35Z"/>
    <path d="M499.61,123.69c-22.66,0-29.81,12.2-29.81,33.46S477,190.6,499.61,190.6s29.82-12.2,29.82-33.45S522.28,123.69,499.61,123.69Zm0,55.64c-12.82,0-16.62-6.22-16.62-22.18s3.8-22.21,16.62-22.21,16.63,6.21,16.63,22.21S512.44,179.33,499.61,179.33Z"/>
    <path d="M586.21,173.78c-6.9,3.55-13.61,5.57-18.44,5.54-5.93,0-9.29-2.69-9.29-11.81V125.13H545.66v44.18c0,15.15,7.87,21.29,18.64,21.26,7.05,0,15.05-2.62,22.61-6.49l.6,5H599v-64H586.21Z"/>
    <path d="M654.62,123.68c-7.32,0-16.08,2.51-24.79,6.59l-.61-5.14H617.7v64h12.83V140.59c7.94-3.63,15.4-5.66,20.89-5.66,6.28,0,9.82,2.67,9.82,11.81v42.41h12.82V144.94C674.05,129.74,666,123.68,654.62,123.68Z"/>
    <path d="M749.26,98.53H736.44v31.6c-8.57-4.74-14.16-6.45-21.22-6.45-19.3,0-24.54,12.85-24.54,33.55s5.24,33.37,24.5,33.37c7.28,0,13-1.8,21.93-6.82l.64,5.37h11.52Zm-12.82,75c-8.65,4.75-12.66,5.86-17.62,5.86-11.82,0-15-6.32-15-22.21h0c0-15.9,3.16-22.21,15-22.21,4.8,0,8.81,1,17.58,5.86Z"/>
    <path d="M190.19,97.78,159.75,80.21a9.49,9.49,0,0,0-14.23,8.21v66.65a13.34,13.34,0,0,0,6.65,11.51l12.4,7.16-26.7,15.4-26.67-15.4,12.4-7.16a13.34,13.34,0,0,0,6.65-11.51V88.42A9.49,9.49,0,0,0,116,80.21L85.58,97.78a13.33,13.33,0,0,0-6.64,11.51v86.42a13.33,13.33,0,0,0,6.64,11.51l45.66,26.36a13.36,13.36,0,0,0,13.29,0l45.66-26.36a13.34,13.34,0,0,0,6.65-11.51V109.29A13.34,13.34,0,0,0,190.19,97.78ZM82.69,109.29A9.57,9.57,0,0,1,87.46,101L117.9,83.46a5.74,5.74,0,0,1,8.6,5v66.65a9.57,9.57,0,0,1-4.77,8.26L85.58,184.2a13.08,13.08,0,0,0-2.89,2.26ZM188.32,204l-45.66,26.36a9.56,9.56,0,0,1-9.54,0L87.46,204a9.54,9.54,0,0,1,0-16.52l20-11.54L136,192.39a3.81,3.81,0,0,0,3.78,0l28.55-16.48,20,11.54a9.54,9.54,0,0,1,0,16.52Zm4.77-17.51a13.37,13.37,0,0,0-2.9-2.26L154,163.33a9.57,9.57,0,0,1-4.77-8.26V88.42a5.74,5.74,0,0,1,8.61-5L188.32,101a9.57,9.57,0,0,1,4.77,8.26Z"/>
  </g>
</svg>